<svg id="Layer_1" data-name="Layer 1" xmlns="http://www.w3.org/2000/svg" viewBox="0 0 750 750"><defs><style>.cls-1{fill:#89ff89;}</style></defs><polygon class="cls-1" points="215.63 515.43 74.64 374.65 215.63 233.87 356.63 374.65 215.63 515.43"/><ellipse class="cls-1" cx="123.88" cy="432.34" rx="123.88" ry="123.69"/><ellipse class="cls-1" cx="123.88" cy="317.18" rx="123.88" ry="123.69"/><polygon class="cls-1" points="534.36 233.98 675.36 374.76 534.36 515.54 393.36 374.76 534.36 233.98"/><ellipse class="cls-1" cx="626.12" cy="317.07" rx="123.88" ry="123.69"/><ellipse class="cls-1" cx="626.12" cy="432.23" rx="123.88" ry="123.69"/><polygon class="cls-1" points="235.07 215.63 375.85 74.64 516.63 215.63 375.85 356.63 235.07 215.63"/><ellipse class="cls-1" cx="318.17" cy="123.88" rx="123.69" ry="123.88"/><ellipse class="cls-1" cx="433.32" cy="123.88" rx="123.69" ry="123.88"/><polygon class="cls-1" points="235.17 534.36 375.95 675.36 516.73 534.36 375.95 393.36 235.17 534.36"/><ellipse class="cls-1" cx="318.27" cy="626.12" rx="123.69" ry="123.88"/><ellipse class="cls-1" cx="433.43" cy="626.12" rx="123.69" ry="123.88"/></svg>